# xmcd CD database file
#
# Track frame offsets:
#	150
#	9042
#	16904
#	29490
#	39754
#	50110
#	66295
#	81689
#	90952
#	106432
#	128310
#	143267
#	162395
#	184200
#	198011
#	212737
#	234649
#	247552
#	271218
#
# Disc length: 3980 seconds
#
# Revision: 1
# Processed by: cddbd v1.5.2PL0 Copyright (c) Steve Scherf et al.
# Submitted via: CDex 1.76
#
DISCID=e90f8a13
DTITLE=Oleg Timofeyev - Elizabethan Pavans
DYEAR=2016
DGENRE=Gitarre
TTITLE0=Anonym - Kyng Harry the VIIIth Pavyn 
TTITLE1=Anonym - The Kinges Pavane 
TTITLE2=Anonym - Pavan 
TTITLE3=Cotton - Quadro pavan 
TTITLE4=Conrie - Anthony pavan 
TTITLE5=Anonym - Passamezzo pavan 
TTITLE6=Ferrabosco - Pavan 
TTITLE7=Anonym - Quadro pavan 
TTITLE8=Philips - Pavana cromatica 
TTITLE9=Johnson - Spanish pavan 
TTITLE10=Philips - Philips pavan 
TTITLE11=Mason - Mason pavan 
TTITLE12=Dowland - Lachrimae pavan 
TTITLE13=Robinson - Spanish pavan 
TTITLE14=Dowland - Semper Dowland semper dolens 
TTITLE15=Anonym - Sims pavan 
TTITLE16=Anonym - Pavan 
TTITLE17=Bacheler - Pavan 
TTITLE18=Daniel - Rosamund 
EXTD=YEAR: 2016
EXTT0=
EXTT1=
EXTT2=
EXTT3=
EXTT4=
EXTT5=
EXTT6=
EXTT7=
EXTT8=
EXTT9=
EXTT10=
EXTT11=
EXTT12=
EXTT13=
EXTT14=
EXTT15=
EXTT16=
EXTT17=
EXTT18=
PLAYORDER=
